PathFileType	4	(X/Y/Z)	RBDS019\RBDS019runT25.trc
DataRate	CameraRate	NumFrames	NumMarkers	Units	OrigDataRate	OrigDataStartFrame	OrigNumFrames
150.000000	150.000000	6	33	mm	150.000000	3937	4500
Frame#	Time	L.ASIS			L.Heel.Bottom			L.Heel.Lateral			L.Heel.Top			L.Iliac.Crest			L.MT1			L.MT5			L.PSIS			L.Shank.Bottom.Lateral			L.Shank.Bottom.Medial			L.Shank.Top.Lateral			L.Shank.Top.Medial			L.Thigh.Bottom.Lateral			L.Thigh.Bottom.Medial			L.Thigh.Top.Lateral			L.Thigh.Top.Medial			R.ASIS			R.ASY			R.Heel.Bottom			R.Heel.Lateral			R.Heel.Top			R.Iliac.Crest			R.MT1			R.MT5			R.PSIS			R.Shank.Bottom.Lateral			R.Shank.Bottom.Medial			R.Shank.Top.Lateral			R.Shank.Top.Medial			R.Thigh.Bottom.Lateral			R.Thigh.Bottom.Medial			R.Thigh.Top.Lateral			R.Thigh.Top.Medial			
		X1	Y1	Z1	X2	Y2	Z2	X3	Y3	Z3	X4	Y4	Z4	X5	Y5	Z5	X6	Y6	Z6	X7	Y7	Z7	X8	Y8	Z8	X9	Y9	Z9	X10	Y10	Z10	X11	Y11	Z11	X12	Y12	Z12	X13	Y13	Z13	X14	Y14	Z14	X15	Y15	Z15	X16	Y16	Z16	X17	Y17	Z17	X18	Y18	Z18	X19	Y19	Z19	X20	Y20	Z20	X21	Y21	Z21	X22	Y22	Z22	X23	Y23	Z23	X24	Y24	Z24	X25	Y25	Z25	X26	Y26	Z26	X27	Y27	Z27	X28	Y28	Z28	X29	Y29	Z29	X30	Y30	Z30	X31	Y31	Z31	X32	Y32	Z32	X33	Y33	Z33	

3938	26.24666666666667	2275.569419553472	877.1684602296459	965.2135249198403	1869.760933949247	493.1471960359054	1058.495843349439	1883.551215307553	465.6362352064495	1013.393282154314	1915.628878657033	479.5359705038367	1058.450249150693	2221.97313549061	932.1020384670627	917.9869570527195	1867.191734013246	285.9085415339778	1075.940817031811	1858.328653825777	325.9966824532779	976.4286392191204	2101.847764459587	911.311224100582	1003.314360143828	2000.768048798033	428.8541065506731	989.1422599118971	2002.421113145913	459.8850694817805	1029.733946889671	2079.266734396819	440.0295727489574	973.4995042201555	2085.035257839487	469.7479877423705	1016.911901103059	2274.378900055526	510.0542642118376	925.481571027671	2214.54639404409	497.1290385139296	965.7172046682066	2240.008581181107	612.8094611935396	908.3361076194622	2183.662915682386	600.6422546714405	947.9957720835417	2244.254000180557	913.1319018797045	1200.151220508975	2204.700736546172	74.35864384385799	1113.663754790747	2027.537551342866	33.10302515941064	1116.915893924644	2057.619019118787	47.15446048292841	1155.811826523852	2040.30346485357	76.94473154697988	1115.570896715355	2178.475471434936	958.2171693968244	1214.872499479047	2224.458584063284	47.89955131405971	1072.217752719587	2200.61866665029	32.28709873331351	1178.374899621949	2090.606700078302	929.1325167715986	1099.124869994347	2138.711923354455	142.7973742530722	1175.537268114733	2099.150753878202	166.6407495271611	1144.60269889392	2161.866066465349	217.0572526661405	1200.639272277276	2124.123842587431	239.3581661286279	1167.792004597397	2244.144958084407	529.7230397805532	1240.693543784331	2191.160698884574	516.8730010069072	1194.057427732143	2206.373374993576	633.3584907922655	1254.448788791324	2154.074947323071	618.9283560067461	1213.081059942227	
3939	26.25333333333333	2274.262304444588	878.1274227148981	964.1575870395526	1877.508437145568	485.8689765079113	1054.45696516636	1892.665001067627	457.7904514686076	1009.983332260006	1923.832269300732	473.7118016293734	1054.977017907765	2219.402530149012	933.528480783928	917.5851478886694	1881.963537900252	279.002505007867	1076.622368403944	1872.631696151569	316.4748618686892	975.9992003723206	2100.776736394982	912.3391027410709	1004.233102644045	2011.385897678614	424.2866838421412	987.453486602642	2012.017330048343	455.9531490504722	1027.587021416409	2089.849620516526	437.2002548963147	972.3720061896156	2094.529810439715	467.7436191125336	1015.32854504999	2282.722044144219	512.7818510409874	925.6513282684108	2222.830953028272	497.9607937309124	965.1191016184684	2245.453214186818	614.5225023198923	908.2593896430651	2189.024739355635	600.5396626625742	947.1706646687461	2244.251749775373	912.6417939837083	1199.386123074923	2188.199401963996	74.42436550909395	1113.74728722749	2010.749118495265	33.88060293060295	1116.933369470608	2040.908149340159	47.72759024849833	1155.853894119648	2023.772884854175	77.66142225346404	1115.647508089541	2178.407065089466	959.1481251203639	1214.659450034303	2207.565218616111	47.68875422718781	1072.431831365293	2183.64976333848	32.2597544112641	1178.363780384376	2090.151936633937	930.2128952732343	1100.016564868496	2123.239638258351	142.935139139925	1175.207567682099	2083.890605281578	167.2948093370363	1144.511175751424	2147.44097844441	216.8224519174086	1200.282637396316	2109.948238718791	239.6142419784669	1167.636768049895	2235.244868407116	528.5703131706605	1239.967179941373	2181.731292973357	517.0148224391127	1193.602142288293	2200.177316070254	633.1259644102749	1253.613871828518	2147.411937309461	620.1184520083457	1212.338493100452	
3940	26.26	2273.191734705449	879.815765487323	963.2215057715827	1884.765075703649	477.0649394295991	1050.982720655318	1901.389374732914	448.7615888751974	1006.953683877809	1931.560099902763	466.6857204841539	1051.776599465639	2217.661572101653	935.7456862971355	917.4444152952647	1897.285814507105	270.9518818735458	1077.088328757106	1887.257970361147	306.0922201850785	975.5785210088281	2099.909496605059	914.0610164237721	1005.253318955005	2021.577976494251	419.0360842537946	985.8853911762689	2020.984409024598	451.381976112307	1025.469661196142	2099.828667641172	434.1633445009696	971.2130359926991	2103.234111667419	465.6022421845632	1013.623021770723	2290.733519436417	516.4523922139379	925.7412533687235	2230.910144518728	499.7629161312568	964.5461216946901	2250.660952579726	617.1219389341419	908.2000610709224	2194.265858566107	601.3575281380213	946.4438826081141	2244.468428656009	912.452386617739	1198.687030051839	2171.735080988693	74.53703834662252	1113.756406418472	1993.904925409067	34.99731403971872	1116.918906887751	2024.169175280234	48.5555187828646	1155.873326829229	2007.263304691597	78.7015747540656	1115.72383590036	2178.928994576682	960.4937514382059	1214.596769917848	2190.631200141483	47.43739972167857	1072.495123803797	2166.602176337641	32.25102953945392	1178.275523733081	2089.909652241954	931.8768287247823	1101.170882019389	2107.612305627985	143.4417110999327	1174.782565667377	2068.454333272633	168.2213883115396	1144.258492182966	2132.707549921641	217.003685720706	1199.758238540294	2095.451722403205	240.1934819518588	1167.263192303465	2226.152407986625	527.9873020559402	1239.035232192826	2172.041537932356	517.7696812921208	1193.073188361608	2193.944486073442	633.4306064932638	1252.660838048626	2140.611413314713	621.879963751281	1211.6363075213	
3941	26.26666666666667	2272.391738722709	882.167239879229	962.4507159947187	1891.638068868908	466.7435915246476	1048.111419558822	1909.824130481774	438.5871327914231	1004.352068223807	1938.887609202607	458.4601738813631	1048.932248190977	2216.751564478543	938.6123830183438	917.5200412847963	1913.233215055606	261.8463963866009	1077.287664042789	1902.296506069306	294.9736169373129	975.1159624819988	2099.270140131948	916.4299658839934	1006.264372660439	2031.404788745918	413.1157959057082	984.4741511619025	2029.378686900111	446.1576864411322	1023.421795390344	2109.218213898752	430.9004986820202	970.0344786834123	2111.161346053871	463.2716691519066	1011.815460090061	2298.355244623203	520.99775727728	925.7412965331722	2238.720172801822	502.4945308343502	963.9991245492699	2255.593492498284	620.5552866127916	908.1520064944453	2199.343470973344	603.0672575745947	945.8213109300178	2244.868718594059	912.6090941935402	1198.10957522026	2155.340379423851	74.72119309967053	1113.714634060685	1977.055223340974	36.55332997687981	1116.894486427656	2007.451406005101	49.72274402687669	1155.891446806485	1990.831257191365	80.15642335838321	1115.831222661287	2179.97073531872	962.1598131136437	1214.674271487188	2173.67468651183	47.20362378329425	1072.420771463999	2149.494548031997	32.29028640543684	1178.120154780819	2089.883719928267	934.0967397667758	1102.453724935678	2091.894163807299	144.4229526665029	1174.30852136712	2052.915047880095	169.5358789409506	1143.880591348494	2117.761080252549	217.7097572121536	1199.109877470698	2080.729374029747	241.2127277340375	1166.703419457812	2216.956815430434	528.0360922852182	1237.925037400875	2162.225349688165	519.2131746133524	1192.451320627072	2187.733034383017	634.3107495919535	1251.614679679048	2133.770667464473	624.2535886219325	1210.967139897668	
3942	26.27333333333333	2271.891979239756	885.1288011465481	961.8815215139261	1898.276833459927	454.9400339588148	1045.852052233348	1918.093971249054	427.3161683128778	1002.206616547785	1945.922584937715	449.0509716843354	1046.510718497473	2216.60626107791	942.0185686902877	917.7548501330774	1929.879782775305	251.8016373682548	1077.179812397947	1917.827297043462	283.2495933493691	974.5638574848034	2098.882840584568	919.4094947574757	1007.174137338526	2040.951457465779	406.5535217384205	983.2445985624286	2037.288860288982	440.2687775271257	1021.483701707284	2118.062329232267	427.3951185348885	968.8531159772008	2118.358501786683	460.6905389852828	1009.940516467022	2305.544067923536	526.3327275176505	925.6462030683175	2246.208218726527	506.0998945851697	963.4828681329155	2260.22785994364	624.755030153034	908.1019812563194	2204.224491001041	605.6254212061194	945.2995954758692	2245.426914046151	913.1589986515734	1197.691750209249	2139.054553691763	74.98877123892062	1113.649262909636	1960.261722109864	38.64385184124671	1116.883501063629	1990.814373569378	51.30858637782405	1155.930383094113	1974.546805995029	82.11005221295392	1115.999595725145	2181.458729181547	964.0953138599433	1214.866631692658	2156.71886132613	47.02597697906111	1072.234639444487	2132.355798946066	32.39526307608708	1177.909052095666	2090.086327202819	936.8510930414442	1103.740558595695	2076.157202156491	145.9621668386448	1173.832283501364	2037.350117622235	171.3283677550259	1143.420913843287	2102.696333491599	219.026606194495	1198.385895314469	2065.875534325269	242.7632149871614	1166.0000440963	2207.713096457213	528.7671395873743	1236.652771393236	2152.382286185049	521.4203688182698	1191.703174551239	2181.586082301754	635.7971891689124	1250.490001128589	2126.97617866906	627.2875709991966	1210.303994777991	
3943	26.28	2271.714014183377	888.6608417673665	961.5368632464327	1904.863613471969	441.7151670197495	1044.187523909804	1926.34156792833	415.0081806073292	1000.525213013001	1952.800345483218	438.487753652801	1044.557474063832	2217.108668209282	945.8920502214197	918.0869228003331	1947.291667233566	240.9558989265606	1076.736037025225	1933.916150731243	271.0525324044388	973.8808793121339	2098.769091684045	922.9694460415527	1007.916086730298	2050.319762766498	399.3906254360991	982.2087513410654	2044.829754123516	433.7078508538931	1019.693819669441	2126.429988310415	423.6331563897965	967.6902692885415	2124.903522259699	457.7916911734584	1008.04599990825	2312.272609526962	532.356735812851	925.4562259493531	2253.333131283634	510.508442237344	963.0060784426789	2264.556993032794	629.6393797057779	908.030123150446	2208.886047790664	608.9735419560402	944.865403929677	2246.128588637742	914.1411746140429	1197.450262632323	2122.922258384459	75.33647159089833	1113.586945293297	1943.595880222458	41.35404889461718	1116.907787054946	1974.326209226025	53.38368828643873	1156.009949728231	1958.491668753187	84.63451267883777	1116.252731992315	2183.32938412619	966.2925354706657	1215.136621438854	2139.79273469585	46.91880021191273	1071.971128708386	2115.225308538824	32.57162133744763	1177.653512795596	2090.535619527157	940.1204691669251	1104.929480516518	2060.480128675872	148.1149912358335	1173.396085056543	2021.8404723859	173.6588537148913	1142.923159380203	2087.604287377776	221.0128135160884	1197.633354485318	2050.981759063663	244.9064095778824	1165.199125219364	2198.447553273995	530.2195052420328	1235.228024266113	2142.581016097791	524.4597104232924	1190.789598537892	2175.534281564475	637.9123303892486	1249.293700764282	2120.303952314195	631.0311669745248	1209.606175071702	
